<svg width="152" height="160" viewBox="0 0 152 160" fill="none" xmlns="http://www.w3.org/2000/svg">
<g clip-path="url(#clip0_115_691)">
<path d="M18.4801 141.3L21.1101 135.46C24.3448 137.698 28.1768 138.914 32.1101 138.95C36.7001 138.95 38.5701 137.42 38.5701 135.37C38.5701 129.11 19.1101 133.37 19.1101 120.98C19.1101 115.29 23.7001 110.56 33.2101 110.56C37.2838 110.487 41.3006 111.524 44.8301 113.56L42.4401 119.44C39.6294 117.777 36.4355 116.871 33.1701 116.81C28.5801 116.81 26.8101 118.53 26.8101 120.64C26.8101 126.8 46.2601 122.55 46.2601 134.83C46.2601 140.43 41.6301 145.21 32.0701 145.21C26.8001 145.17 21.4501 143.59 18.4801 141.3Z" fill="url(#paint0_radial_115_691)"/>
<path d="M49.1801 131.74C49.1801 123.99 55.1801 118.49 63.3301 118.49C71.4801 118.49 77.4301 123.99 77.4301 131.74C77.4301 139.49 71.5001 145 63.3301 145C55.1601 145 49.1801 139.48 49.1801 131.74ZM69.8801 131.74C69.8801 127.29 67.0601 124.61 63.3301 124.61C59.6001 124.61 56.7301 127.29 56.7301 131.74C56.7301 136.19 59.6001 138.86 63.3301 138.86C67.0601 138.86 69.8801 136.18 69.8801 131.74Z" fill="url(#paint1_radial_115_691)"/>
<path d="M93.45 134.51L89.86 138V144.55H82.41V109.12H89.86V129.2L100.76 118.87H109.65L99 129.78L110.66 144.59H101.66L93.45 134.51Z" fill="url(#paint2_radial_115_691)"/>
<path d="M136.24 129.92V144.59H129.24V141.39C127.85 143.73 125.18 144.98 121.4 144.98C115.4 144.98 111.79 141.63 111.79 137.18C111.79 132.73 114.99 129.49 122.79 129.49H128.72C128.72 126.29 126.81 124.42 122.79 124.42C120.128 124.4 117.529 125.238 115.38 126.81L112.71 121.6C116.016 119.484 119.876 118.402 123.8 118.49C131.7 118.49 136.24 122.13 136.24 129.92ZM128.78 136.47V133.84H123.67C120.18 133.84 119.08 135.13 119.08 136.84C119.08 138.55 120.65 139.95 123.28 139.95C124.448 140.031 125.611 139.737 126.6 139.111C127.589 138.485 128.353 137.56 128.78 136.47Z" fill="url(#paint3_radial_115_691)"/>
<path d="M0.310059 156.25L0.920059 154.9C1.67022 155.418 2.55829 155.7 3.47006 155.71C4.53006 155.71 4.96006 155.35 4.96006 154.88C4.96006 153.43 0.460059 154.42 0.460059 151.55C0.460059 150.24 1.52006 149.14 3.72006 149.14C4.66258 149.123 5.59214 149.361 6.41006 149.83L5.85006 151.19C5.20242 150.803 4.46449 150.592 3.71006 150.58C2.65006 150.58 2.24006 150.98 2.24006 151.46C2.24006 152.89 6.74006 151.91 6.74006 154.74C6.74006 156.04 5.67006 157.14 3.46006 157.14C2.34407 157.17 1.2454 156.859 0.310059 156.25Z" fill="url(#paint4_radial_115_691)"/>
<path d="M12.7801 156.72C12.3638 156.988 11.8748 157.121 11.3801 157.1C11.091 157.132 10.7982 157.101 10.5223 157.009C10.2464 156.917 9.99392 156.765 9.78255 156.565C9.57117 156.365 9.40597 156.122 9.29847 155.851C9.19096 155.581 9.14375 155.291 9.16011 155V152.55H8.24011V151.2H9.16011V149.75H10.8801V151.2H12.3601V152.52H10.8801V154.94C10.8666 155.043 10.876 155.147 10.9076 155.246C10.9393 155.344 10.9924 155.434 11.0632 155.51C11.134 155.586 11.2207 155.645 11.317 155.683C11.4133 155.721 11.5168 155.737 11.6201 155.73C11.8708 155.732 12.1158 155.655 12.3201 155.51L12.7801 156.72Z" fill="url(#paint5_radial_115_691)"/>
<path d="M18.5501 151V152.59H18.1701C17.951 152.568 17.7298 152.596 17.5233 152.672C17.3167 152.749 17.1302 152.871 16.9779 153.03C16.8257 153.189 16.7116 153.381 16.6444 153.59C16.5772 153.8 16.5586 154.022 16.5901 154.24V157H14.8601V151.06H16.5101V151.84C16.7582 151.547 17.0729 151.318 17.4279 151.172C17.7828 151.026 18.1677 150.967 18.5501 151Z" fill="url(#paint6_radial_115_691)"/>
<path d="M26.42 154.52H21.92C22.0137 154.89 22.2366 155.214 22.5483 155.434C22.86 155.654 23.2401 155.755 23.62 155.72C23.8966 155.732 24.1727 155.687 24.4309 155.587C24.6891 155.488 24.9237 155.335 25.12 155.14L26.03 156.14C25.7207 156.477 25.3407 156.742 24.9171 156.914C24.4935 157.087 24.0369 157.164 23.58 157.14C23.1452 157.184 22.7059 157.135 22.2914 156.996C21.877 156.858 21.4968 156.632 21.1761 156.335C20.8555 156.038 20.6017 155.676 20.4317 155.274C20.2616 154.871 20.1793 154.437 20.19 154C20.1894 153.591 20.2722 153.187 20.4335 152.811C20.5948 152.436 20.8311 152.097 21.1279 151.816C21.4248 151.535 21.7759 151.318 22.1597 151.178C22.5435 151.037 22.952 150.977 23.36 151C23.7706 150.978 24.1811 151.043 24.5651 151.19C24.949 151.337 25.2979 151.563 25.5891 151.854C25.8803 152.144 26.1073 152.492 26.2556 152.876C26.4039 153.259 26.4702 153.669 26.45 154.08C26.45 154.19 26.43 154.38 26.42 154.52ZM21.9 153.52H24.83C24.7665 153.178 24.5853 152.869 24.3177 152.646C24.0501 152.424 23.713 152.302 23.365 152.302C23.017 152.302 22.68 152.424 22.4124 152.646C22.1448 152.869 21.9635 153.178 21.9 153.52Z" fill="url(#paint7_radial_115_691)"/>
<path d="M34.7801 153.61V157H33.0601V153.86C33.0601 152.86 32.6201 152.46 31.8601 152.46C31.1001 152.46 30.4301 152.97 30.4301 154.06V157H28.7101V151.06H30.3501V151.75C30.6087 151.485 30.9209 151.278 31.2658 151.144C31.6107 151.009 31.9804 150.95 32.3501 150.97C32.6923 150.952 33.0342 151.01 33.3514 151.139C33.6687 151.269 33.9535 151.467 34.1856 151.719C34.4176 151.971 34.5912 152.271 34.694 152.598C34.7967 152.925 34.8261 153.27 34.7801 153.61Z" fill="url(#paint8_radial_115_691)"/>
<path d="M43.6501 151.07V156.07C43.6501 158.27 42.4501 159.29 40.3101 159.29C39.2747 159.331 38.2528 159.044 37.3901 158.47L38.0801 157.24C38.6906 157.682 39.4265 157.917 40.1801 157.91C41.3901 157.91 41.9201 157.36 41.9201 156.29V156C41.6781 156.251 41.385 156.447 41.0606 156.575C40.7363 156.702 40.3882 156.759 40.0401 156.74C39.2789 156.745 38.5468 156.448 38.0048 155.914C37.4629 155.379 37.1554 154.651 37.1501 153.89C37.1448 153.129 37.4421 152.397 37.9766 151.855C38.511 151.313 39.2389 151.005 40.0001 151C40.3771 150.972 40.7553 151.034 41.1033 151.182C41.4512 151.33 41.7587 151.559 42.0001 151.85V151.09L43.6501 151.07ZM41.9401 153.85C41.9602 153.538 41.8857 153.226 41.7265 152.957C41.5673 152.687 41.3307 152.472 41.0474 152.338C40.7641 152.205 40.4472 152.16 40.138 152.209C39.8288 152.259 39.5416 152.4 39.3137 152.614C39.0858 152.829 38.9277 153.107 38.8601 153.413C38.7925 153.719 38.8184 154.038 38.9345 154.329C39.0507 154.619 39.2516 154.868 39.5112 155.043C39.7708 155.218 40.077 155.311 40.3901 155.31C40.5899 155.325 40.7908 155.299 40.9798 155.232C41.1688 155.165 41.3417 155.06 41.4876 154.922C41.6335 154.785 41.7491 154.619 41.8271 154.434C41.905 154.249 41.9435 154.05 41.9401 153.85Z" fill="url(#paint9_radial_115_691)"/>
<path d="M50.19 156.72C49.7693 156.986 49.2777 157.119 48.78 157.1C48.4909 157.132 48.1981 157.101 47.9222 157.009C47.6463 156.917 47.3938 156.765 47.1825 156.565C46.9711 156.365 46.8059 156.122 46.6984 155.851C46.5909 155.581 46.5437 155.291 46.56 155V152.55H45.65V151.2H46.56V149.75H48.29V151.2H49.77V152.52H48.29V154.94C48.2746 155.043 48.2826 155.148 48.3136 155.248C48.3445 155.347 48.3976 155.438 48.4688 155.514C48.54 155.59 48.6275 155.649 48.7247 155.686C48.8219 155.724 48.9262 155.739 49.03 155.73C49.2776 155.732 49.5194 155.655 49.72 155.51L50.19 156.72Z" fill="url(#paint10_radial_115_691)"/>
<path d="M58.34 153.61V157H56.62V153.86C56.62 152.86 56.18 152.46 55.41 152.46C54.64 152.46 54 153 54 154.07V157H52.27V148.8H54V151.67C54.2532 151.434 54.5506 151.251 54.875 151.131C55.1994 151.011 55.5444 150.956 55.89 150.97C56.2338 150.949 56.578 151.005 56.8978 151.133C57.2175 151.261 57.5049 151.458 57.7392 151.711C57.9735 151.963 58.1489 152.265 58.2528 152.593C58.3567 152.921 58.3865 153.269 58.34 153.61Z" fill="url(#paint11_radial_115_691)"/>
<path d="M64.8701 153.14C64.9214 152.307 65.2162 151.508 65.7178 150.841C66.2195 150.174 66.906 149.669 67.692 149.389C68.4781 149.109 69.3291 149.066 70.1394 149.265C70.9497 149.464 71.6836 149.897 72.2501 150.51L71.1001 151.57C70.8639 151.285 70.5672 151.057 70.2317 150.901C69.8961 150.745 69.53 150.666 69.1601 150.67C68.4971 150.67 67.8612 150.933 67.3923 151.402C66.9235 151.871 66.6601 152.507 66.6601 153.17C66.6601 153.833 66.9235 154.469 67.3923 154.938C67.8612 155.407 68.4971 155.67 69.1601 155.67C69.5322 155.675 69.9005 155.594 70.2367 155.435C70.573 155.275 70.8683 155.041 71.1001 154.75L72.2501 155.81C71.6863 156.427 70.9531 156.864 70.1422 157.066C69.3313 157.269 68.4787 157.228 67.6911 156.948C66.9034 156.668 66.2157 156.163 65.714 155.494C65.2122 154.826 64.9187 154.024 64.8701 153.19V153.14Z" fill="url(#paint12_radial_115_691)"/>
<path d="M73.7901 154C73.748 153.346 73.9034 152.694 74.2362 152.13C74.569 151.565 75.0637 151.113 75.6563 150.833C76.2489 150.553 76.912 150.458 77.5595 150.559C78.207 150.661 78.8091 150.955 79.2876 151.402C79.7662 151.85 80.0991 152.431 80.2433 153.071C80.3874 153.71 80.3361 154.378 80.096 154.988C79.8559 155.598 79.438 156.121 78.8967 156.491C78.3554 156.86 77.7155 157.059 77.0601 157.06C76.6409 157.089 76.2203 157.031 75.8245 156.89C75.4286 156.749 75.066 156.529 74.7593 156.241C74.4525 155.954 74.2081 155.607 74.0414 155.222C73.8746 154.836 73.7891 154.42 73.7901 154ZM78.5701 154C78.5467 153.705 78.4379 153.424 78.2569 153.19C78.0759 152.956 77.8306 152.78 77.551 152.683C77.2715 152.587 76.9699 152.574 76.6831 152.646C76.3964 152.718 76.1369 152.873 75.9366 153.09C75.7363 153.308 75.6038 153.579 75.5554 153.871C75.5069 154.163 75.5446 154.462 75.6639 154.733C75.7831 155.004 75.9787 155.233 76.2267 155.395C76.4747 155.556 76.7643 155.641 77.0601 155.64C77.2702 155.642 77.4786 155.6 77.6715 155.517C77.8645 155.434 78.0378 155.311 78.1801 155.156C78.3225 155.001 78.4308 154.819 78.498 154.619C78.5651 154.42 78.5897 154.209 78.5701 154Z" fill="url(#paint13_radial_115_691)"/>
<path d="M88.6501 153.61V157H86.9301V153.86C86.9301 152.86 86.4901 152.46 85.7201 152.46C84.9501 152.46 84.3001 152.97 84.3001 154.06V157H82.5801V151.06H84.2201V151.75C84.4787 151.485 84.7909 151.278 85.1358 151.144C85.4807 151.009 85.8504 150.95 86.2201 150.97C86.5623 150.952 86.9042 151.01 87.2214 151.139C87.5387 151.269 87.8235 151.467 88.0555 151.719C88.2876 151.971 88.4612 152.271 88.564 152.598C88.6667 152.925 88.6961 153.27 88.6501 153.61Z" fill="url(#paint14_radial_115_691)"/>
<path d="M90.7401 156.46L91.3201 155.22C91.9435 155.591 92.6549 155.787 93.3801 155.79C94.1801 155.79 94.4801 155.58 94.4801 155.25C94.4801 154.25 90.8901 155.25 90.8901 152.9C90.8901 151.77 91.8901 150.98 93.6401 150.98C94.431 150.966 95.2134 151.145 95.9201 151.5L95.3501 152.72C94.8283 152.427 94.2387 152.275 93.6401 152.28C92.8601 152.28 92.5301 152.52 92.5301 152.83C92.5301 153.83 96.1201 152.83 96.1201 155.21C96.1201 156.31 95.1201 157.1 93.3201 157.1C92.4189 157.116 91.5293 156.895 90.7401 156.46Z" fill="url(#paint15_radial_115_691)"/>
<path d="M104.28 151.07V157H102.64V156.29C102.283 156.667 101.818 156.925 101.31 157.03C100.801 157.135 100.272 157.082 99.7947 156.877C99.3174 156.672 98.9143 156.325 98.6399 155.884C98.3655 155.443 98.2329 154.929 98.2601 154.41V151.06H100V154.16C100 155.16 100.44 155.6 101.2 155.6C101.96 155.6 102.57 155.09 102.57 153.99V151.06L104.28 151.07Z" fill="url(#paint16_radial_115_691)"/>
<path d="M107 148.81H108.73V157H107V148.81Z" fill="url(#paint17_radial_115_691)"/>
<path d="M115.68 156.72C115.264 156.988 114.775 157.121 114.28 157.1C113.988 157.133 113.693 157.101 113.414 157.007C113.136 156.913 112.882 156.759 112.67 156.556C112.458 156.353 112.294 156.105 112.188 155.831C112.083 155.557 112.039 155.263 112.06 154.97V152.52H111.14V151.2H112.06V149.75H113.78V151.2H115.26V152.52H113.78V154.94C113.766 155.043 113.776 155.147 113.808 155.246C113.839 155.344 113.892 155.434 113.963 155.51C114.034 155.586 114.121 155.645 114.217 155.683C114.313 155.721 114.417 155.737 114.52 155.73C114.77 155.731 115.015 155.654 115.22 155.51L115.68 156.72Z" fill="url(#paint18_radial_115_691)"/>
<path d="M123 153.62V157H121.4V156.26C121.202 156.549 120.928 156.779 120.61 156.925C120.291 157.071 119.939 157.128 119.59 157.09C118.2 157.09 117.37 156.32 117.37 155.29C117.37 154.26 118.11 153.51 119.92 153.51H121.29C121.29 152.77 120.85 152.34 119.92 152.34C119.306 152.335 118.706 152.528 118.21 152.89L117.59 151.69C118.355 151.198 119.251 150.947 120.16 150.97C122 151 123 151.82 123 153.62ZM121.27 155.13V154.52H120.09C119.29 154.52 119.03 154.82 119.03 155.22C119.03 155.62 119.4 155.94 120.03 155.94C120.299 155.958 120.567 155.888 120.794 155.742C121.02 155.597 121.194 155.382 121.29 155.13H121.27Z" fill="url(#paint19_radial_115_691)"/>
<path d="M131.76 153.61V157H130V153.86C130 152.86 129.56 152.46 128.8 152.46C128.04 152.46 127.37 152.97 127.37 154.06V157H125.65V151.06H127.3V151.75C127.558 151.484 127.87 151.277 128.215 151.142C128.56 151.007 128.93 150.949 129.3 150.97C129.645 150.948 129.99 151.002 130.311 151.129C130.632 151.257 130.921 151.454 131.156 151.707C131.391 151.959 131.568 152.261 131.672 152.59C131.777 152.919 131.807 153.268 131.76 153.61Z" fill="url(#paint20_radial_115_691)"/>
<path d="M134.05 154C134.05 153.577 134.138 153.158 134.307 152.77C134.477 152.382 134.725 152.034 135.036 151.746C135.347 151.459 135.714 151.239 136.114 151.1C136.514 150.961 136.938 150.907 137.36 150.94C137.904 150.897 138.447 151.018 138.921 151.287C139.395 151.557 139.778 151.961 140.02 152.45L138.69 153.17C138.564 152.923 138.373 152.715 138.136 152.57C137.899 152.426 137.627 152.349 137.35 152.35C136.936 152.382 136.549 152.57 136.267 152.875C135.985 153.179 135.828 153.58 135.828 153.995C135.828 154.41 135.985 154.81 136.267 155.115C136.549 155.42 136.936 155.608 137.35 155.64C137.627 155.645 137.9 155.571 138.137 155.428C138.374 155.285 138.566 155.077 138.69 154.83L140.02 155.56C139.775 156.045 139.391 156.446 138.917 156.713C138.444 156.98 137.902 157.101 137.36 157.06C136.938 157.093 136.514 157.038 136.114 156.9C135.714 156.761 135.347 156.541 135.036 156.254C134.725 155.966 134.477 155.618 134.307 155.23C134.138 154.842 134.05 154.423 134.05 154Z" fill="url(#paint21_radial_115_691)"/>
<path d="M147.93 151.07L145.25 157.37C145.117 157.917 144.8 158.401 144.352 158.742C143.904 159.082 143.353 159.258 142.79 159.24C142.192 159.252 141.607 159.062 141.13 158.7L141.76 157.47C142.034 157.717 142.391 157.852 142.76 157.85C143.24 157.85 143.5 157.64 143.76 157.11V157.05L141.18 151.05H142.96L144.63 155.05L146.31 151.05L147.93 151.07Z" fill="url(#paint22_radial_115_691)"/>
<path d="M108.72 94.65C121.124 89.7875 132.586 82.7995 142.59 74C98.4501 99 52.4101 93.37 45.7001 72C45.8201 93.19 79.0501 105 108.72 94.65Z" fill="url(#paint23_radial_115_691)"/>
<path d="M71.39 102.72C84.2166 102.066 96.8516 99.3301 108.8 94.62C79.11 105 45.82 93.21 45.7 72C37.75 87.43 51.61 101.79 71.39 102.72Z" fill="url(#paint24_radial_115_691)"/>
<path d="M45.7001 72C41.2901 73.12 32.7001 87.53 34.7001 94.29C36.0401 98.93 51.0801 103.72 71.4001 102.72C51.6201 101.79 37.7501 87.43 45.7001 72Z" fill="url(#paint25_radial_115_691)"/>
<path d="M77 8.20994C64.5997 13.0775 53.1444 20.0725 43.15 28.8799C87.29 3.87994 133.33 9.49994 140.04 30.8799C139.92 9.66994 106.69 -2.10006 77 8.20994Z" fill="url(#paint26_radial_115_691)"/>
<path d="M114.35 0.139954C101.524 0.799054 88.89 3.53459 76.9401 8.23995C106.63 -2.12005 139.94 9.64995 140.04 30.85C148 15.43 134.13 1.06995 114.35 0.139954Z" fill="url(#paint27_radial_115_691)"/>
<path d="M140 30.86C144.41 29.73 153 15.32 151 8.55997C149.7 3.91997 134.66 -0.870028 114.34 0.139971C134.12 1.06997 148 15.43 140 30.86Z" fill="url(#paint28_radial_115_691)"/>
<path d="M96.0001 35.55C93.4401 33.55 91.4801 31.55 90.6901 29.45C87.4701 20.92 94.1501 16.9 94.1501 16.9C85.4801 15.07 68.6001 22.84 68.6001 38.83C68.6001 51.97 83.4701 60.53 92.3001 67.44C94.8601 69.44 96.8201 71.44 97.6101 73.56C100.83 82.08 94.1501 86.1 94.1501 86.1C102.82 87.93 119.7 80.17 119.7 64.17C119.7 51 104.83 42.46 96.0001 35.55Z" fill="url(#paint29_radial_115_691)"/>
<path d="M101.574 142.78H110.61L98.9447 127.959L109.654 117.058H100.761L89.8608 127.385V107.305H82.4024V142.78H89.8608V136.23L93.4465 132.692L101.574 142.78ZM123.872 116.676C119.761 116.676 115.601 117.775 112.78 119.783L115.458 124.995C117.322 123.513 120.143 122.604 122.868 122.604C126.884 122.604 128.797 124.469 128.797 127.672H122.868C115.027 127.672 111.824 130.827 111.824 135.369C111.824 139.816 115.41 143.162 121.434 143.162C125.211 143.162 127.888 141.919 129.275 139.577V142.78H136.255V128.102C136.255 120.309 131.713 116.676 123.872 116.676ZM123.299 138.142C120.669 138.142 119.091 136.899 119.091 135.035C119.091 133.314 120.191 132.023 123.681 132.023H128.797V134.652C127.936 136.995 125.785 138.142 123.299 138.142Z" fill="#232323"/>
<path d="M16.5121 150.8V150.015H14.8657V155.96H16.5895V153.153C16.5895 152.015 17.2193 151.496 18.1696 151.496C18.3022 151.496 18.4127 151.507 18.5564 151.518V149.927C17.6392 149.927 16.932 150.225 16.5121 150.8ZM25.3507 153.01C25.3507 151.098 24.0026 149.927 22.2567 149.927C20.4445 149.927 19.0854 151.208 19.0854 152.988C19.0854 154.756 20.4224 156.048 22.4777 156.048C23.5496 156.048 24.3783 155.717 24.9308 155.087L24.0137 154.093C23.6048 154.479 23.1518 154.667 22.5219 154.667C21.6158 154.667 20.986 154.214 20.8202 153.474H25.3176C25.3286 153.33 25.3507 153.142 25.3507 153.01ZM22.2678 151.231C23.0413 151.231 23.6048 151.717 23.7264 152.468H20.7981C20.9197 151.706 21.4832 151.231 22.2678 151.231ZM30.1117 149.927C29.3051 149.927 28.6089 150.203 28.1448 150.711V150.015H26.4984V155.96H28.2222V153.021C28.2222 151.927 28.8189 151.418 29.6476 151.418C30.4101 151.418 30.8521 151.86 30.8521 152.822V155.96H32.5759V152.557C32.5759 150.744 31.5151 149.927 30.1117 149.927ZM38.7005 150.015V150.778C38.2475 150.203 37.5624 149.927 36.7336 149.927C35.0872 149.927 33.7612 151.065 33.7612 152.8C33.7612 154.535 35.0872 155.673 36.7336 155.673C37.5071 155.673 38.1591 155.43 38.6121 154.932V155.186C38.6121 156.258 38.0817 156.811 36.8662 156.811C36.1038 156.811 35.275 156.546 34.7667 156.137L34.0816 157.374C34.7778 157.916 35.8717 158.192 36.9988 158.192C39.1425 158.192 40.3359 157.175 40.3359 154.965V150.015H38.7005ZM37.0762 154.258C36.1701 154.258 35.5071 153.673 35.5071 152.8C35.5071 151.927 36.1701 151.341 37.0762 151.341C37.9823 151.341 38.6342 151.927 38.6342 152.8C38.6342 153.673 37.9823 154.258 37.0762 154.258ZM45.3106 154.457C45.1227 154.601 44.8686 154.678 44.6144 154.678C44.1503 154.678 43.8741 154.402 43.8741 153.894V151.474H45.3548V150.148H43.8741V148.7H42.1503V150.148H41.2331V151.474H42.1503V153.916C42.1503 155.33 42.968 156.048 44.3713 156.048C44.9017 156.048 45.4211 155.927 45.7747 155.673L45.3106 154.457ZM50.3557 149.927C49.5932 149.927 48.9302 150.17 48.4661 150.634V147.761H46.7423V155.96H48.4661V153.021C48.4661 151.927 49.0628 151.418 49.8916 151.418C50.654 151.418 51.096 151.86 51.096 152.822V155.96H52.8198V152.557C52.8198 150.744 51.759 149.927 50.3557 149.927ZM61.3351 156.093C62.6832 156.093 63.7992 155.606 64.5285 154.711L63.3793 153.651C62.86 154.258 62.208 154.568 61.4345 154.568C59.987 154.568 58.9593 153.551 58.9593 152.092C58.9593 150.634 59.987 149.617 61.4345 149.617C62.208 149.617 62.86 149.927 63.3793 150.523L64.5285 149.463C63.7992 148.579 62.6832 148.092 61.3461 148.092C58.9372 148.092 57.1471 149.761 57.1471 152.092C57.1471 154.424 58.9372 156.093 61.3351 156.093ZM68.2396 156.048C70.1291 156.048 71.4993 154.778 71.4993 152.988C71.4993 151.197 70.1291 149.927 68.2396 149.927C66.35 149.927 64.9688 151.197 64.9688 152.988C64.9688 154.778 66.35 156.048 68.2396 156.048ZM68.2396 154.634C67.3777 154.634 66.7147 154.015 66.7147 152.988C66.7147 151.96 67.3777 151.341 68.2396 151.341C69.1015 151.341 69.7534 151.96 69.7534 152.988C69.7534 154.015 69.1015 154.634 68.2396 154.634ZM76.2649 149.927C75.4583 149.927 74.7621 150.203 74.298 150.711V150.015H72.6516V155.96H74.3754V153.021C74.3754 151.927 74.9721 151.418 75.8008 151.418C76.5633 151.418 77.0053 151.86 77.0053 152.822V155.96H78.7291V152.557C78.7291 150.744 77.6683 149.927 76.2649 149.927ZM82.2916 156.048C84.0707 156.048 85.0983 155.264 85.0983 154.159C85.0983 151.816 81.5071 152.8 81.5071 151.783C81.5071 151.474 81.8386 151.231 82.6121 151.231C83.1535 151.231 83.7392 151.341 84.3248 151.673L84.8994 150.446C84.3359 150.115 83.4298 149.927 82.6121 149.927C80.8772 149.927 79.8606 150.722 79.8606 151.849C79.8606 154.225 83.4519 153.231 83.4519 154.203C83.4519 154.535 83.1535 154.744 82.3579 154.744C81.6286 154.744 80.822 154.512 80.2916 154.17L79.717 155.407C80.2695 155.772 81.2861 156.048 82.2916 156.048ZM90.4272 150.015V152.954C90.4272 154.048 89.8526 154.557 89.057 154.557C88.2946 154.557 87.8526 154.115 87.8526 153.12V150.015H86.1288V153.374C86.1288 155.209 87.1785 156.048 88.6703 156.048C89.3996 156.048 90.0626 155.772 90.5156 155.253V155.96H92.151V150.015H90.4272ZM93.748 155.96H95.4718V147.761H93.748V155.96ZM100.874 154.457C100.686 154.601 100.432 154.678 100.177 154.678C99.7133 154.678 99.437 154.402 99.437 153.894V151.474H100.918V150.148H99.437V148.7H97.7132V150.148H96.7961V151.474H97.7132V153.916C97.7132 155.33 98.5309 156.048 99.9343 156.048C100.465 156.048 100.984 155.927 101.338 155.673L100.874 154.457ZM104.703 149.927C103.753 149.927 102.791 150.181 102.14 150.645L102.758 151.849C103.189 151.507 103.841 151.297 104.471 151.297C105.399 151.297 105.841 151.728 105.841 152.468H104.471C102.659 152.468 101.919 153.197 101.919 154.247C101.919 155.275 102.747 156.048 104.14 156.048C105.013 156.048 105.631 155.761 105.952 155.22V155.96H107.565V152.568C107.565 150.766 106.515 149.927 104.703 149.927ZM104.571 154.888C103.963 154.888 103.598 154.601 103.598 154.17C103.598 153.772 103.852 153.474 104.659 153.474H105.841V154.081C105.642 154.623 105.145 154.888 104.571 154.888ZM112.739 149.927C111.932 149.927 111.236 150.203 110.772 150.711V150.015H109.125V155.96H110.849V153.021C110.849 151.927 111.446 151.418 112.274 151.418C113.037 151.418 113.479 151.86 113.479 152.822V155.96H115.203V152.557C115.203 150.744 114.142 149.927 112.739 149.927ZM119.703 156.048C120.952 156.048 121.935 155.496 122.366 154.546L121.029 153.816C120.709 154.391 120.233 154.634 119.692 154.634C118.819 154.634 118.134 154.026 118.134 152.988C118.134 151.949 118.819 151.341 119.692 151.341C120.233 151.341 120.709 151.595 121.029 152.159L122.366 151.441C121.935 150.468 120.952 149.927 119.703 149.927C117.769 149.927 116.388 151.197 116.388 152.988C116.388 154.778 117.769 156.048 119.703 156.048ZM127.515 150.015L125.836 154.048L124.167 150.015H122.388L124.963 156.004L124.941 156.059C124.709 156.59 124.444 156.8 123.968 156.8C123.626 156.8 123.261 156.656 122.996 156.424L122.366 157.651C122.753 157.993 123.416 158.192 124.024 158.192C125.095 158.192 125.913 157.761 126.488 156.325L129.173 150.015H127.515Z" fill="#1A6460"/>
<path d="M108.72 94.65C121.124 89.7875 132.586 82.7995 142.59 74C98.4501 99 52.4101 93.37 45.7001 72C45.8201 93.19 79.0501 105 108.72 94.65Z" fill="url(#paint30_radial_115_691)"/>
<path d="M71.39 102.72C84.2166 102.066 96.8516 99.3301 108.8 94.62C79.11 105 45.82 93.21 45.7 72C37.75 87.43 51.61 101.79 71.39 102.72Z" fill="url(#paint31_radial_115_691)"/>
<path d="M45.7001 72C41.2901 73.12 32.7001 87.53 34.7001 94.29C36.0401 98.93 51.0801 103.72 71.4001 102.72C51.6201 101.79 37.7501 87.43 45.7001 72Z" fill="url(#paint32_radial_115_691)"/>
<path d="M77 8.20994C64.5997 13.0775 53.1444 20.0725 43.15 28.8799C87.29 3.87994 133.33 9.49994 140.04 30.8799C139.92 9.66994 106.69 -2.10006 77 8.20994Z" fill="url(#paint33_radial_115_691)"/>
<path d="M114.35 0.139954C101.524 0.799054 88.89 3.53459 76.9401 8.23995C106.63 -2.12005 139.94 9.64995 140.04 30.85C148 15.43 134.13 1.06995 114.35 0.139954Z" fill="url(#paint34_radial_115_691)"/>
<path d="M140 30.86C144.41 29.73 153 15.32 151 8.55997C149.7 3.91997 134.66 -0.870028 114.34 0.139971C134.12 1.06997 148 15.43 140 30.86Z" fill="url(#paint35_radial_115_691)"/>
<path d="M96.0001 35.55C93.4401 33.55 91.4801 31.55 90.6901 29.45C87.4701 20.92 94.1501 16.9 94.1501 16.9C85.4801 15.07 68.6001 22.84 68.6001 38.83C68.6001 51.97 83.4701 60.53 92.3001 67.44C94.8601 69.44 96.8201 71.44 97.6101 73.56C100.83 82.08 94.1501 86.1 94.1501 86.1C102.82 87.93 119.7 80.17 119.7 64.17C119.7 51 104.83 42.46 96.0001 35.55Z" fill="url(#paint36_radial_115_691)"/>
</g>
<defs>
<radialGradient id="paint0_radial_115_691" cx="0" cy="0" r="1" gradientUnits="userSpaceOnUse" gradientTransform="translate(83.2701 79.9699) scale(81.64 81.64)">
<stop stop-color="#232323"/>
</radialGradient>
<radialGradient id="paint1_radial_115_691" cx="0" cy="0" r="1" gradientUnits="userSpaceOnUse" gradientTransform="translate(83.2701 79.97) scale(81.64 81.64)">
<stop stop-color="#232323"/>
</radialGradient>
<radialGradient id="paint2_radial_115_691" cx="0" cy="0" r="1" gradientUnits="userSpaceOnUse" gradientTransform="translate(83.27 79.97) scale(81.64 81.64)">
<stop stop-color="#232323"/>
</radialGradient>
<radialGradient id="paint3_radial_115_691" cx="0" cy="0" r="1" gradientUnits="userSpaceOnUse" gradientTransform="translate(83.27 79.97) scale(81.64 81.64)">
<stop stop-color="#232323"/>
</radialGradient>
<radialGradient id="paint4_radial_115_691" cx="0" cy="0" r="1" gradientUnits="userSpaceOnUse" gradientTransform="translate(83.2701 79.97) scale(81.64 81.64)">
<stop stop-color="#232323"/>
</radialGradient>
<radialGradient id="paint5_radial_115_691" cx="0" cy="0" r="1" gradientUnits="userSpaceOnUse" gradientTransform="translate(83.2701 79.97) scale(81.64 81.6401)">
<stop stop-color="#232323"/>
</radialGradient>
<radialGradient id="paint6_radial_115_691" cx="0" cy="0" r="1" gradientUnits="userSpaceOnUse" gradientTransform="translate(83.2701 79.97) scale(81.64 81.64)">
<stop stop-color="#232323"/>
</radialGradient>
<radialGradient id="paint7_radial_115_691" cx="0" cy="0" r="1" gradientUnits="userSpaceOnUse" gradientTransform="translate(83.27 79.9699) scale(81.64 81.64)">
<stop stop-color="#232323"/>
</radialGradient>
<radialGradient id="paint8_radial_115_691" cx="0" cy="0" r="1" gradientUnits="userSpaceOnUse" gradientTransform="translate(83.2701 79.97) scale(81.64 81.64)">
<stop stop-color="#232323"/>
</radialGradient>
<radialGradient id="paint9_radial_115_691" cx="0" cy="0" r="1" gradientUnits="userSpaceOnUse" gradientTransform="translate(83.2701 79.97) scale(81.64 81.6399)">
<stop stop-color="#232323"/>
</radialGradient>
<radialGradient id="paint10_radial_115_691" cx="0" cy="0" r="1" gradientUnits="userSpaceOnUse" gradientTransform="translate(83.27 79.97) scale(81.64 81.6401)">
<stop stop-color="#232323"/>
</radialGradient>
<radialGradient id="paint11_radial_115_691" cx="0" cy="0" r="1" gradientUnits="userSpaceOnUse" gradientTransform="translate(83.27 79.97) scale(81.64 81.64)">
<stop stop-color="#232323"/>
</radialGradient>
<radialGradient id="paint12_radial_115_691" cx="0" cy="0" r="1" gradientUnits="userSpaceOnUse" gradientTransform="translate(83.2701 79.97) scale(81.64 81.64)">
<stop stop-color="#232323"/>
</radialGradient>
<radialGradient id="paint13_radial_115_691" cx="0" cy="0" r="1" gradientUnits="userSpaceOnUse" gradientTransform="translate(83.2701 79.97) scale(81.64 81.64)">
<stop stop-color="#232323"/>
</radialGradient>
<radialGradient id="paint14_radial_115_691" cx="0" cy="0" r="1" gradientUnits="userSpaceOnUse" gradientTransform="translate(83.2701 79.97) scale(81.64 81.64)">
<stop stop-color="#232323"/>
</radialGradient>
<radialGradient id="paint15_radial_115_691" cx="0" cy="0" r="1" gradientUnits="userSpaceOnUse" gradientTransform="translate(83.2701 79.9699) scale(81.6401 81.6401)">
<stop stop-color="#232323"/>
</radialGradient>
<radialGradient id="paint16_radial_115_691" cx="0" cy="0" r="1" gradientUnits="userSpaceOnUse" gradientTransform="translate(83.2701 79.97) scale(81.64 81.64)">
<stop stop-color="#232323"/>
</radialGradient>
<radialGradient id="paint17_radial_115_691" cx="0" cy="0" r="1" gradientUnits="userSpaceOnUse" gradientTransform="translate(83.27 79.9699) scale(81.6402 81.64)">
<stop stop-color="#232323"/>
</radialGradient>
<radialGradient id="paint18_radial_115_691" cx="0" cy="0" r="1" gradientUnits="userSpaceOnUse" gradientTransform="translate(83.27 79.9699) scale(81.64 81.6401)">
<stop stop-color="#232323"/>
</radialGradient>
<radialGradient id="paint19_radial_115_691" cx="0" cy="0" r="1" gradientUnits="userSpaceOnUse" gradientTransform="translate(83.2701 79.97) scale(81.64 81.6399)">
<stop stop-color="#232323"/>
</radialGradient>
<radialGradient id="paint20_radial_115_691" cx="0" cy="0" r="1" gradientUnits="userSpaceOnUse" gradientTransform="translate(83.2701 79.97) scale(81.6399 81.64)">
<stop stop-color="#232323"/>
</radialGradient>
<radialGradient id="paint21_radial_115_691" cx="0" cy="0" r="1" gradientUnits="userSpaceOnUse" gradientTransform="translate(83.27 79.97) scale(81.64 81.6399)">
<stop stop-color="#232323"/>
</radialGradient>
<radialGradient id="paint22_radial_115_691" cx="0" cy="0" r="1" gradientUnits="userSpaceOnUse" gradientTransform="translate(83.2702 79.97) scale(81.6399 81.64)">
<stop stop-color="#232323"/>
</radialGradient>
<radialGradient id="paint23_radial_115_691" cx="0" cy="0" r="1" gradientUnits="userSpaceOnUse" gradientTransform="translate(83.2701 79.97) scale(81.64 81.64)">
<stop stop-color="#232323"/>
</radialGradient>
<radialGradient id="paint24_radial_115_691" cx="0" cy="0" r="1" gradientUnits="userSpaceOnUse" gradientTransform="translate(83.27 79.97) scale(81.64)">
<stop stop-color="#232323"/>
</radialGradient>
<radialGradient id="paint25_radial_115_691" cx="0" cy="0" r="1" gradientUnits="userSpaceOnUse" gradientTransform="translate(83.2701 79.97) scale(81.64 81.64)">
<stop stop-color="#232323"/>
</radialGradient>
<radialGradient id="paint26_radial_115_691" cx="0" cy="0" r="1" gradientUnits="userSpaceOnUse" gradientTransform="translate(83.27 79.9699) scale(81.64 81.64)">
<stop stop-color="#232323"/>
</radialGradient>
<radialGradient id="paint27_radial_115_691" cx="0" cy="0" r="1" gradientUnits="userSpaceOnUse" gradientTransform="translate(83.2701 79.97) scale(81.64 81.64)">
<stop stop-color="#232323"/>
</radialGradient>
<radialGradient id="paint28_radial_115_691" cx="0" cy="0" r="1" gradientUnits="userSpaceOnUse" gradientTransform="translate(83.2701 79.97) scale(81.64 81.64)">
<stop stop-color="#232323"/>
</radialGradient>
<radialGradient id="paint29_radial_115_691" cx="0" cy="0" r="1" gradientUnits="userSpaceOnUse" gradientTransform="translate(83.2701 79.97) scale(81.64 81.64)">
<stop stop-color="#232323"/>
</radialGradient>
<radialGradient id="paint30_radial_115_691" cx="0" cy="0" r="1" gradientUnits="userSpaceOnUse" gradientTransform="translate(137.8 96.53) rotate(180) scale(95.41 95.41)">
<stop stop-color="#B7DEDD"/>
<stop offset="0.26" stop-color="#B4DCDB"/>
<stop offset="0.42" stop-color="#ACD6D4"/>
<stop offset="0.56" stop-color="#9ECAC9"/>
<stop offset="0.67" stop-color="#89BBB9"/>
<stop offset="0.78" stop-color="#6FA6A4"/>
<stop offset="0.88" stop-color="#4F8D8A"/>
<stop offset="0.97" stop-color="#29706C"/>
<stop offset="1" stop-color="#1A6460"/>
</radialGradient>
<radialGradient id="paint31_radial_115_691" cx="0" cy="0" r="1" gradientUnits="userSpaceOnUse" gradientTransform="translate(97.7 105.41) rotate(180) scale(61.71 61.71)">
<stop stop-color="#B7DEDD"/>
<stop offset="0.26" stop-color="#B4DCDB"/>
<stop offset="0.42" stop-color="#ACD6D4"/>
<stop offset="0.56" stop-color="#9ECAC9"/>
<stop offset="0.67" stop-color="#89BBB9"/>
<stop offset="0.78" stop-color="#6FA6A4"/>
<stop offset="0.88" stop-color="#4F8D8A"/>
<stop offset="0.97" stop-color="#29706C"/>
<stop offset="1" stop-color="#1A6460"/>
</radialGradient>
<radialGradient id="paint32_radial_115_691" cx="0" cy="0" r="1" gradientUnits="userSpaceOnUse" gradientTransform="translate(63.7201 94.41) rotate(180) scale(29.13 29.13)">
<stop stop-color="#B7DEDD"/>
<stop offset="0.26" stop-color="#B4DCDB"/>
<stop offset="0.42" stop-color="#ACD6D4"/>
<stop offset="0.56" stop-color="#9ECAC9"/>
<stop offset="0.67" stop-color="#89BBB9"/>
<stop offset="0.78" stop-color="#6FA6A4"/>
<stop offset="0.88" stop-color="#4F8D8A"/>
<stop offset="0.97" stop-color="#29706C"/>
<stop offset="1" stop-color="#1A6460"/>
</radialGradient>
<radialGradient id="paint33_radial_115_691" cx="0" cy="0" r="1" gradientUnits="userSpaceOnUse" gradientTransform="translate(47.94 6.32994) scale(95.41 95.41)">
<stop stop-color="#B7DEDD"/>
<stop offset="0.26" stop-color="#B4DCDB"/>
<stop offset="0.42" stop-color="#ACD6D4"/>
<stop offset="0.56" stop-color="#9ECAC9"/>
<stop offset="0.67" stop-color="#89BBB9"/>
<stop offset="0.78" stop-color="#6FA6A4"/>
<stop offset="0.88" stop-color="#4F8D8A"/>
<stop offset="0.97" stop-color="#29706C"/>
<stop offset="1" stop-color="#1A6460"/>
</radialGradient>
<radialGradient id="paint34_radial_115_691" cx="0" cy="0" r="1" gradientUnits="userSpaceOnUse" gradientTransform="translate(88.0401 -2.55005) scale(61.71 61.71)">
<stop stop-color="#B7DEDD"/>
<stop offset="0.26" stop-color="#B4DCDB"/>
<stop offset="0.42" stop-color="#ACD6D4"/>
<stop offset="0.56" stop-color="#9ECAC9"/>
<stop offset="0.67" stop-color="#89BBB9"/>
<stop offset="0.78" stop-color="#6FA6A4"/>
<stop offset="0.88" stop-color="#4F8D8A"/>
<stop offset="0.97" stop-color="#29706C"/>
<stop offset="1" stop-color="#1A6460"/>
</radialGradient>
<radialGradient id="paint35_radial_115_691" cx="0" cy="0" r="1" gradientUnits="userSpaceOnUse" gradientTransform="translate(122.03 8.45997) scale(29.13)">
<stop stop-color="#B7DEDD"/>
<stop offset="0.26" stop-color="#B4DCDB"/>
<stop offset="0.42" stop-color="#ACD6D4"/>
<stop offset="0.56" stop-color="#9ECAC9"/>
<stop offset="0.67" stop-color="#89BBB9"/>
<stop offset="0.78" stop-color="#6FA6A4"/>
<stop offset="0.88" stop-color="#4F8D8A"/>
<stop offset="0.97" stop-color="#29706C"/>
<stop offset="1" stop-color="#1A6460"/>
</radialGradient>
<radialGradient id="paint36_radial_115_691" cx="0" cy="0" r="1" gradientUnits="userSpaceOnUse" gradientTransform="translate(94.1501 51.5) scale(30.56 30.56)">
<stop stop-color="#232323"/>
</radialGradient>
<clipPath id="clip0_115_691">
<rect width="151.32" height="159.95" fill="white"/>
</clipPath>
</defs>
</svg>
